<svg xmlns="http://www.w3.org/2000/svg" xmlns:xlink="http://www.w3.org/1999/xlink" width="500"
    zoomAndPan="magnify" viewBox="0 0 375 374.999991" height="500"
    preserveAspectRatio="xMidYMid meet" version="1.0">
    <defs>
        <clipPath id="dd9c92d6f1">
            <path
                d="M 187.5 0 C 83.945312 0 0 83.945312 0 187.5 C 0 291.054688 83.945312 375 187.5 375 C 291.054688 375 375 291.054688 375 187.5 C 375 83.945312 291.054688 0 187.5 0 Z M 187.5 0 "
                clip-rule="nonzero" />
        </clipPath>
        <clipPath id="9c71c88d2f">
            <path d="M 59 78 L 299.617188 78 L 299.617188 319.507812 L 59 319.507812 Z M 59 78 "
                clip-rule="nonzero" />
        </clipPath>
    </defs>
    <g clip-path="url(#dd9c92d6f1)">
        <path stroke-linecap="butt" transform="matrix(0.75, 0, 0, 0.75, 0.0000045, 0)" fill="none"
            stroke-linejoin="miter"
            d="M 249.999994 0 C 111.927078 0 -0.000006 111.927084 -0.000006 250 C -0.000006 388.072917 111.927078 500.000001 249.999994 500.000001 C 388.072911 500.000001 499.999995 388.072917 499.999995 250 C 499.999995 111.927084 388.072911 0 249.999994 0 Z M 249.999994 0 "
            stroke="#a6a6a6" stroke-width="75" stroke-opacity="1" stroke-miterlimit="4" />
    </g>
    <g clip-path="url(#9c71c88d2f)">
        <path fill="#a6a6a6"
            d="M 231.382812 319.839844 C 230.589844 319.839844 229.804688 319.761719 229.027344 319.605469 C 228.246094 319.453125 227.492188 319.222656 226.757812 318.917969 C 226.027344 318.617188 225.332031 318.242188 224.671875 317.800781 C 224.011719 317.363281 223.402344 316.859375 222.839844 316.300781 C 222.277344 315.738281 221.777344 315.128906 221.335938 314.46875 C 220.894531 313.808594 220.523438 313.113281 220.21875 312.378906 C 219.917969 311.648438 219.6875 310.890625 219.53125 310.113281 C 219.378906 309.335938 219.300781 308.550781 219.300781 307.757812 L 219.300781 276.339844 C 219.488281 274.535156 219.488281 272.726562 219.296875 270.921875 C 219.105469 269.113281 218.726562 267.347656 218.164062 265.621094 C 217.605469 263.894531 216.867188 262.242188 215.960938 260.667969 C 215.050781 259.097656 213.992188 257.632812 212.777344 256.285156 C 212.023438 255.46875 211.394531 254.566406 210.890625 253.578125 C 210.390625 252.589844 210.027344 251.550781 209.8125 250.460938 C 209.59375 249.375 209.527344 248.277344 209.613281 247.171875 C 209.695312 246.066406 209.929688 244.992188 210.308594 243.949219 C 210.691406 242.90625 211.203125 241.933594 211.851562 241.035156 C 212.5 240.132812 213.257812 239.335938 214.128906 238.644531 C 214.996094 237.953125 215.941406 237.394531 216.960938 236.960938 C 217.984375 236.53125 219.046875 236.246094 220.144531 236.105469 C 249.628906 232.601562 276.8125 223.175781 276.8125 172.066406 C 276.820312 167.296875 276.132812 162.625 274.753906 158.058594 C 273.375 153.488281 271.363281 149.21875 268.71875 145.246094 C 267.511719 143.433594 266.488281 141.523438 265.65625 139.511719 C 264.824219 137.5 264.195312 135.425781 263.773438 133.292969 C 263.347656 131.15625 263.132812 129 263.132812 126.824219 C 263.132812 124.644531 263.34375 122.488281 263.765625 120.355469 C 264.863281 114.675781 264.863281 108.996094 263.765625 103.316406 C 254.664062 106.394531 246.246094 110.785156 238.511719 116.488281 C 237.785156 117.003906 237.011719 117.433594 236.1875 117.777344 C 235.367188 118.125 234.519531 118.375 233.640625 118.53125 C 232.761719 118.6875 231.878906 118.746094 230.988281 118.707031 C 230.097656 118.667969 229.222656 118.535156 228.363281 118.300781 C 222.9375 116.765625 217.433594 115.613281 211.847656 114.839844 C 206.261719 114.066406 200.652344 113.679688 195.015625 113.679688 C 189.375 113.679688 183.765625 114.066406 178.179688 114.839844 C 172.597656 115.613281 167.09375 116.765625 161.667969 118.300781 C 160.804688 118.535156 159.929688 118.667969 159.039062 118.707031 C 158.148438 118.746094 157.265625 118.6875 156.390625 118.53125 C 155.511719 118.375 154.660156 118.125 153.839844 117.777344 C 153.019531 117.433594 152.242188 117.003906 151.515625 116.488281 C 143.734375 110.714844 135.234375 106.328125 126.023438 103.316406 C 124.863281 108.996094 124.863281 114.675781 126.023438 120.355469 C 126.414062 122.519531 126.597656 124.699219 126.570312 126.898438 C 126.542969 129.09375 126.308594 131.269531 125.863281 133.425781 C 125.417969 135.578125 124.773438 137.667969 123.925781 139.699219 C 123.078125 141.726562 122.046875 143.65625 120.828125 145.488281 C 118.195312 149.488281 116.191406 153.78125 114.8125 158.367188 C 113.433594 162.953125 112.742188 167.640625 112.730469 172.429688 C 112.730469 219.433594 135.449219 231.996094 169.519531 236.347656 C 170.636719 236.484375 171.710938 236.773438 172.742188 237.210938 C 173.777344 237.648438 174.734375 238.222656 175.609375 238.925781 C 176.484375 239.628906 177.246094 240.441406 177.894531 241.359375 C 178.542969 242.273438 179.054688 243.261719 179.429688 244.324219 C 179.777344 245.351562 179.988281 246.40625 180.054688 247.492188 C 180.121094 248.574219 180.042969 249.648438 179.820312 250.710938 C 179.597656 251.773438 179.234375 252.789062 178.738281 253.757812 C 178.242188 254.722656 177.625 255.605469 176.890625 256.40625 C 175.714844 257.660156 174.683594 259.023438 173.789062 260.496094 C 172.898438 261.964844 172.164062 263.511719 171.59375 265.132812 C 171.019531 266.753906 170.621094 268.417969 170.394531 270.125 C 170.167969 271.828125 170.117188 273.539062 170.246094 275.253906 L 170.246094 307.757812 C 170.246094 308.550781 170.167969 309.335938 170.011719 310.113281 C 169.859375 310.890625 169.628906 311.648438 169.324219 312.378906 C 169.023438 313.113281 168.648438 313.808594 168.207031 314.46875 C 167.769531 315.128906 167.265625 315.738281 166.707031 316.300781 C 166.144531 316.859375 165.535156 317.363281 164.875 317.800781 C 164.214844 318.242188 163.519531 318.617188 162.785156 318.917969 C 162.054688 319.222656 161.296875 319.453125 160.519531 319.605469 C 159.742188 319.761719 158.957031 319.839844 158.164062 319.839844 C 157.371094 319.839844 156.582031 319.761719 155.804688 319.605469 C 155.027344 319.453125 154.273438 319.222656 153.539062 318.917969 C 152.804688 318.617188 152.109375 318.242188 151.449219 317.800781 C 150.789062 317.363281 150.179688 316.859375 149.617188 316.300781 C 149.058594 315.738281 148.558594 315.128906 148.117188 314.46875 C 147.675781 313.808594 147.304688 313.113281 147 312.378906 C 146.695312 311.648438 146.46875 310.890625 146.3125 310.113281 C 146.15625 309.335938 146.078125 308.550781 146.078125 307.757812 L 146.078125 300.867188 C 143.125 301.210938 140.15625 301.367188 137.179688 301.339844 C 134.203125 301.316406 131.242188 301.109375 128.289062 300.71875 C 125.339844 300.328125 122.421875 299.757812 119.542969 299.007812 C 116.660156 298.257812 113.839844 297.335938 111.070312 296.238281 C 108.304688 295.140625 105.617188 293.878906 103.003906 292.449219 C 100.394531 291.019531 97.878906 289.4375 95.464844 287.699219 C 93.046875 285.960938 90.746094 284.082031 88.5625 282.058594 C 86.378906 280.039062 84.324219 277.890625 82.40625 275.617188 C 78.40625 271.183594 73.734375 267.640625 68.390625 264.984375 C 67.617188 264.785156 66.875 264.515625 66.160156 264.167969 C 65.441406 263.824219 64.765625 263.414062 64.132812 262.9375 C 63.496094 262.457031 62.914062 261.921875 62.382812 261.332031 C 61.855469 260.738281 61.386719 260.101562 60.984375 259.414062 C 60.578125 258.730469 60.246094 258.015625 59.984375 257.261719 C 59.71875 256.511719 59.53125 255.746094 59.421875 254.957031 C 59.308594 254.171875 59.277344 253.378906 59.320312 252.585938 C 59.367188 251.792969 59.488281 251.011719 59.683594 250.242188 C 59.882812 249.472656 60.15625 248.730469 60.5 248.011719 C 60.84375 247.296875 61.257812 246.621094 61.734375 245.984375 C 62.210938 245.351562 62.746094 244.769531 63.339844 244.238281 C 63.933594 243.707031 64.570312 243.242188 65.253906 242.839844 C 65.941406 242.433594 66.65625 242.101562 67.40625 241.839844 C 68.160156 241.574219 68.925781 241.390625 69.714844 241.277344 C 70.5 241.167969 71.292969 241.132812 72.085938 241.179688 C 72.878906 241.222656 73.660156 241.34375 74.429688 241.542969 C 79.078125 243.234375 83.445312 245.472656 87.535156 248.253906 C 91.625 251.035156 95.3125 254.277344 98.59375 257.976562 C 110.679688 270.058594 122.761719 280.691406 145.71875 276.339844 C 145.308594 269.785156 146.234375 263.421875 148.496094 257.25 C 123.605469 250.96875 88.082031 233.085938 88.082031 172.671875 C 88.074219 169.113281 88.328125 165.574219 88.839844 162.054688 C 89.355469 158.53125 90.121094 155.066406 91.144531 151.660156 C 92.167969 148.253906 93.4375 144.9375 94.949219 141.71875 C 96.460938 138.496094 98.199219 135.402344 100.167969 132.4375 C 100.902344 131.335938 101.402344 130.136719 101.675781 128.84375 C 101.945312 127.546875 101.96875 126.25 101.738281 124.945312 C 101.128906 121.703125 100.757812 118.433594 100.621094 115.132812 C 100.484375 111.835938 100.585938 108.546875 100.921875 105.265625 C 101.261719 101.980469 101.832031 98.742188 102.636719 95.539062 C 103.441406 92.339844 104.46875 89.214844 105.722656 86.160156 C 106.417969 84.503906 107.429688 83.074219 108.761719 81.867188 C 110.09375 80.664062 111.617188 79.796875 113.335938 79.273438 C 117.445312 78.066406 132.183594 75.648438 160.097656 93.773438 C 171.394531 91.054688 182.851562 89.695312 194.472656 89.695312 C 206.089844 89.695312 217.550781 91.054688 228.847656 93.773438 C 256.757812 75.648438 271.496094 77.945312 275.484375 79.273438 C 277.203125 79.796875 278.726562 80.664062 280.058594 81.867188 C 281.390625 83.074219 282.402344 84.503906 283.097656 86.160156 C 284.355469 89.222656 285.386719 92.359375 286.191406 95.570312 C 286.996094 98.78125 287.566406 102.03125 287.90625 105.324219 C 288.242188 108.617188 288.34375 111.917969 288.203125 115.226562 C 288.066406 118.53125 287.695312 121.8125 287.085938 125.066406 C 286.835938 126.257812 286.824219 127.449219 287.054688 128.644531 C 287.285156 129.839844 287.738281 130.941406 288.414062 131.953125 C 290.386719 134.925781 292.128906 138.03125 293.644531 141.261719 C 295.15625 144.492188 296.425781 147.816406 297.449219 151.234375 C 298.472656 154.652344 299.242188 158.128906 299.75 161.660156 C 300.261719 165.191406 300.507812 168.742188 300.496094 172.308594 C 300.496094 233.570312 265.214844 251.332031 240.082031 256.886719 C 242.320312 263.4375 243.203125 270.164062 242.742188 277.066406 L 242.742188 307.757812 C 242.742188 308.519531 242.671875 309.277344 242.53125 310.027344 C 242.386719 310.777344 242.175781 311.507812 241.894531 312.21875 C 241.613281 312.929688 241.269531 313.605469 240.859375 314.25 C 240.453125 314.894531 239.984375 315.496094 239.460938 316.054688 C 238.9375 316.609375 238.367188 317.113281 237.75 317.558594 C 237.132812 318.007812 236.476562 318.394531 235.785156 318.71875 C 235.09375 319.042969 234.378906 319.300781 233.636719 319.488281 C 232.898438 319.675781 232.144531 319.792969 231.382812 319.839844 Z M 231.382812 319.839844 "
            fill-opacity="1" fill-rule="nonzero" />
    </g>
</svg>