<svg xmlns="http://www.w3.org/2000/svg" xmlns:xlink="http://www.w3.org/1999/xlink" width="500"
    zoomAndPan="magnify" viewBox="0 0 375 374.999991" height="500"
    preserveAspectRatio="xMidYMid meet" version="1.0">
    <defs>
        <clipPath id="8e6091244c">
            <path
                d="M 3.867188 4.511719 L 371.246094 4.511719 L 371.246094 370.511719 L 3.867188 370.511719 Z M 3.867188 4.511719 "
                clip-rule="nonzero" />
        </clipPath>
        <clipPath id="b5c02625bf">
            <path
                d="M 78.867188 4.511719 L 296.132812 4.511719 C 337.554688 4.511719 371.132812 38.089844 371.132812 79.511719 L 371.132812 295.488281 C 371.132812 336.910156 337.554688 370.488281 296.132812 370.488281 L 78.867188 370.488281 C 37.445312 370.488281 3.867188 336.910156 3.867188 295.488281 L 3.867188 79.511719 C 3.867188 38.089844 37.445312 4.511719 78.867188 4.511719 Z M 78.867188 4.511719 "
                clip-rule="nonzero" />
        </clipPath>
        <clipPath id="3f8fe559d9">
            <path
                d="M 81.3125 81.3125 L 293.5625 81.3125 L 293.5625 293.5625 L 81.3125 293.5625 Z M 81.3125 81.3125 "
                clip-rule="nonzero" />
        </clipPath>
        <clipPath id="dcee863fcc">
            <path
                d="M 187.496094 81.3125 C 128.855469 81.3125 81.3125 128.855469 81.3125 187.496094 C 81.3125 246.140625 128.855469 293.679688 187.496094 293.679688 C 246.140625 293.679688 293.679688 246.140625 293.679688 187.496094 C 293.679688 128.855469 246.140625 81.3125 187.496094 81.3125 Z M 187.496094 81.3125 "
                clip-rule="nonzero" />
        </clipPath>
        <clipPath id="1d2d762fda">
            <path
                d="M 267.398438 55.027344 L 319.972656 55.027344 L 319.972656 107.601562 L 267.398438 107.601562 Z M 267.398438 55.027344 "
                clip-rule="nonzero" />
        </clipPath>
        <clipPath id="c799618362">
            <path
                d="M 293.6875 55.027344 C 279.167969 55.027344 267.398438 66.796875 267.398438 81.3125 C 267.398438 95.832031 279.167969 107.601562 293.6875 107.601562 C 308.203125 107.601562 319.972656 95.832031 319.972656 81.3125 C 319.972656 66.796875 308.203125 55.027344 293.6875 55.027344 Z M 293.6875 55.027344 "
                clip-rule="nonzero" />
        </clipPath>
    </defs>
    <g clip-path="url(#8e6091244c)">
        <g clip-path="url(#b5c02625bf)">
            <path stroke-linecap="butt" transform="matrix(0.75, 0, 0, 0.75, 3.866186, 4.510371)"
                fill="none" stroke-linejoin="miter"
                d="M 100.001348 0.00179724 L 389.688886 0.00179724 C 444.91806 0.00179724 489.688899 44.772636 489.688899 100.00181 L 489.688899 387.970598 C 489.688899 443.199771 444.91806 487.970611 389.688886 487.970611 L 100.001348 487.970611 C 44.772174 487.970611 0.00133528 443.199771 0.00133528 387.970598 L 0.00133528 100.00181 C 0.00133528 44.772636 44.772174 0.00179724 100.001348 0.00179724 Z M 100.001348 0.00179724 "
                stroke="#a6a6a6" stroke-width="64" stroke-opacity="1" stroke-miterlimit="4" />
        </g>
    </g>
    <g clip-path="url(#3f8fe559d9)">
        <g clip-path="url(#dcee863fcc)">
            <path stroke-linecap="butt" transform="matrix(0.75, 0, 0, 0.75, 81.314428, 81.314409)"
                fill="none" stroke-linejoin="miter"
                d="M 141.575564 -0.00254541 C 63.388059 -0.00254541 -0.00257061 63.388084 -0.00257061 141.575589 C -0.00257061 219.768302 63.388059 283.153723 141.575564 283.153723 C 219.768277 283.153723 283.153698 219.768302 283.153698 141.575589 C 283.153698 63.388084 219.768277 -0.00254541 141.575564 -0.00254541 Z M 141.575564 -0.00254541 "
                stroke="#a6a6a6" stroke-width="75" stroke-opacity="1" stroke-miterlimit="4" />
        </g>
    </g>
    <g clip-path="url(#1d2d762fda)">
        <g clip-path="url(#c799618362)">
            <path fill="#a6a6a6"
                d="M 267.398438 55.027344 L 319.972656 55.027344 L 319.972656 107.601562 L 267.398438 107.601562 Z M 267.398438 55.027344 "
                fill-opacity="1" fill-rule="nonzero" />
        </g>
    </g>
</svg>