<svg xmlns="http://www.w3.org/2000/svg" xmlns:xlink="http://www.w3.org/1999/xlink" width="500"
    zoomAndPan="magnify" viewBox="0 0 375 374.999991" height="500"
    preserveAspectRatio="xMidYMid meet" version="1.0">
    <defs>
        <g />
        <clipPath id="2366748be6">
            <path
                d="M 3.867188 4.511719 L 371.246094 4.511719 L 371.246094 370.511719 L 3.867188 370.511719 Z M 3.867188 4.511719 "
                clip-rule="nonzero" />
        </clipPath>
        <clipPath id="2d047e225f">
            <path
                d="M 33.117188 4.511719 L 341.882812 4.511719 C 358.035156 4.511719 371.132812 17.605469 371.132812 33.761719 L 371.132812 341.238281 C 371.132812 357.390625 358.035156 370.488281 341.882812 370.488281 L 33.117188 370.488281 C 16.960938 370.488281 3.867188 357.390625 3.867188 341.238281 L 3.867188 33.761719 C 3.867188 17.605469 16.960938 4.511719 33.117188 4.511719 Z M 33.117188 4.511719 "
                clip-rule="nonzero" />
        </clipPath>
    </defs>
    <g clip-path="url(#2366748be6)">
        <g clip-path="url(#2d047e225f)">
            <path stroke-linecap="butt" transform="matrix(0.75, 0, 0, 0.75, 3.866186, 4.510309)"
                fill="none" stroke-linejoin="miter"
                d="M 39.00134 0.0018798 L 450.688894 0.0018798 C 472.225355 0.0018798 489.688899 17.460215 489.688899 39.001885 L 489.688899 448.970688 C 489.688899 470.507149 472.225355 487.970693 450.688894 487.970693 L 39.00134 487.970693 C 17.459671 487.970693 0.00133528 470.507149 0.00133528 448.970688 L 0.00133528 39.001885 C 0.00133528 17.460215 17.459671 0.0018798 39.00134 0.0018798 Z M 39.00134 0.0018798 "
                stroke="#a6a6a6" stroke-width="64" stroke-opacity="1" stroke-miterlimit="4" />
        </g>
    </g>
    <g fill="#a6a6a6" fill-opacity="1">
        <g transform="translate(25.062676, 327.45577)">
            <g>
                <path
                    d="M 20.40625 -191.296875 L 20.40625 -222.125 L 47.59375 -222.125 L 47.59375 -191.296875 Z M 47.59375 0 L 20.40625 0 L 20.40625 -161.84375 L 47.59375 -161.84375 Z M 47.59375 0 " />
            </g>
        </g>
        <g transform="translate(93.210799, 327.45577)">
            <g>
                <path
                    d="M 152.3125 0 L 124.96875 0 L 124.96875 -99.578125 C 124.96875 -114.890625 122.296875 -125.796875 116.953125 -132.296875 C 111.617188 -138.796875 102.753906 -142.046875 90.359375 -142.046875 C 78.171875 -142.046875 67.992188 -137.410156 59.828125 -128.140625 C 51.671875 -118.867188 47.59375 -105.570312 47.59375 -88.25 L 47.59375 0 L 20.40625 0 L 20.40625 -161.84375 L 46.09375 -161.84375 L 46.09375 -139.015625 L 46.6875 -139.015625 C 59.488281 -157.347656 75.8125 -166.515625 95.65625 -166.515625 C 113.988281 -166.515625 128.015625 -161.65625 137.734375 -151.9375 C 147.453125 -142.21875 152.3125 -128.289062 152.3125 -110.15625 Z M 152.3125 0 " />
            </g>
        </g>
        <g transform="translate(263.95887, 327.45577)">
            <g>
                <path
                    d="M 59.078125 0 L 26.890625 0 L 26.890625 -32.796875 L 59.078125 -32.796875 Z M 59.078125 0 " />
            </g>
        </g>
    </g>
</svg>