<svg xmlns="http://www.w3.org/2000/svg" xmlns:xlink="http://www.w3.org/1999/xlink" width="500"
    zoomAndPan="magnify" viewBox="0 0 375 374.999991" height="500"
    preserveAspectRatio="xMidYMid meet" version="1.0">
    <defs>
        <clipPath id="09ef072775">
            <path
                d="M 0.00390625 77.359375 L 375 77.359375 L 375 337.507812 L 0.00390625 337.507812 Z M 0.00390625 77.359375 "
                clip-rule="nonzero" />
        </clipPath>
        <clipPath id="2ba85877d5">
            <path
                d="M 38.253906 77.359375 L 336.746094 77.359375 C 357.871094 77.359375 374.996094 94.484375 374.996094 115.609375 L 374.996094 299.242188 C 374.996094 320.367188 357.871094 337.492188 336.746094 337.492188 L 38.253906 337.492188 C 17.128906 337.492188 0.00390625 320.367188 0.00390625 299.242188 L 0.00390625 115.609375 C 0.00390625 94.484375 17.128906 77.359375 38.253906 77.359375 Z M 38.253906 77.359375 "
                clip-rule="nonzero" />
        </clipPath>
        <clipPath id="4a554ad473">
            <path d="M 13 87.238281 L 362 87.238281 L 362 203 L 13 203 Z M 13 87.238281 "
                clip-rule="nonzero" />
        </clipPath>
        <clipPath id="ed53d0cd04">
            <path
                d="M 203.261719 197.914062 L 359.234375 97.394531 C 361.292969 96.070312 362.230469 93.546875 361.539062 91.199219 C 360.847656 88.851562 358.691406 87.238281 356.246094 87.238281 L 18.753906 87.238281 C 16.308594 87.238281 14.152344 88.851562 13.460938 91.199219 C 12.769531 93.546875 13.707031 96.070312 15.765625 97.394531 L 171.738281 197.914062 C 181.335938 204.097656 193.664062 204.097656 203.261719 197.914062 Z M 203.261719 197.914062 "
                clip-rule="nonzero" />
        </clipPath>
    </defs>
    <g clip-path="url(#09ef072775)">
        <g clip-path="url(#2ba85877d5)">
            <path stroke-linecap="butt" transform="matrix(0.75, 0, 0, 0.75, 0.00572775, 77.359214)"
                fill="none" stroke-linejoin="miter"
                d="M 50.997578 0.000214507 L 448.987213 0.000214507 C 477.153883 0.000214507 499.98722 22.833551 499.98722 51.000221 L 499.98722 295.844003 C 499.98722 324.010673 477.153883 346.844009 448.987213 346.844009 L 50.997578 346.844009 C 22.830908 346.844009 -0.00242866 324.010673 -0.00242866 295.844003 L -0.00242866 51.000221 C -0.00242866 22.833551 22.830908 0.000214507 50.997578 0.000214507 Z M 50.997578 0.000214507 "
                stroke="#a6a6a6" stroke-width="50" stroke-opacity="1" stroke-miterlimit="4" />
        </g>
    </g>
    <g clip-path="url(#4a554ad473)">
        <g clip-path="url(#ed53d0cd04)">
            <path stroke-linecap="butt" transform="matrix(0.75, 0, 0, 0.75, 0.00474377, 87.238823)"
                fill="none" stroke-linejoin="miter"
                d="M 271.009318 147.566996 L 478.972873 13.540945 C 481.717665 11.77532 482.967665 8.410736 482.04579 5.280528 C 481.123915 2.150319 478.248915 -0.000722428 474.988498 -0.000722428 L 24.998885 -0.000722428 C 21.738468 -0.000722428 18.863468 2.150319 17.941593 5.280528 C 17.019718 8.410736 18.269718 11.77532 21.01451 13.540945 L 228.978065 147.566996 C 241.774941 155.811788 258.212442 155.811788 271.009318 147.566996 Z M 271.009318 147.566996 "
                stroke="#a6a6a6" stroke-width="52" stroke-opacity="1" stroke-miterlimit="4" />
        </g>
    </g>
</svg>